<svg width="345" height="54" viewBox="0 0 345 54" fill="none" xmlns="http://www.w3.org/2000/svg">
<path d="M138.18 17C139.88 17 141.12 17.4 141.9 18.2C142.68 18.98 143.07 20.19 143.07 21.83V22.58C143.07 23.66 142.89 24.55 142.53 25.25C142.19 25.95 141.66 26.47 140.94 26.81C142.58 27.45 143.4 28.95 143.4 31.31V33.02C143.4 34.64 142.97 35.88 142.11 36.74C141.27 37.58 140.03 38 138.39 38H133.2V17H138.18ZM136.5 25.55H137.79C138.45 25.55 138.94 25.38 139.26 25.04C139.6 24.7 139.77 24.13 139.77 23.33V22.16C139.77 21.4 139.63 20.85 139.35 20.51C139.09 20.17 138.67 20 138.09 20H136.5V25.55ZM136.5 35H138.39C138.97 35 139.4 34.85 139.68 34.55C139.96 34.23 140.1 33.69 140.1 32.93V31.1C140.1 30.14 139.93 29.48 139.59 29.12C139.27 28.74 138.73 28.55 137.97 28.55H136.5V35ZM152.738 38L152.168 34.19H148.118L147.548 38H144.518L147.878 17H152.708L156.068 38H152.738ZM151.718 31.34L150.128 20.72L148.538 31.34H151.718ZM166.844 17V20H163.394V38H160.094V20H156.644V17H166.844ZM171.448 33.2C171.448 34.56 172.018 35.24 173.158 35.24C174.298 35.24 174.868 34.56 174.868 33.2V17H177.988V32.99C177.988 34.69 177.568 36 176.728 36.92C175.888 37.82 174.668 38.27 173.068 38.27C171.468 38.27 170.248 37.82 169.408 36.92C168.568 36 168.148 34.69 168.148 32.99V17H171.448V33.2ZM189.491 17H194.081V38H190.961V22.94L188.681 38H185.561L183.101 23.15V38H180.221V17H184.811L187.241 31.91L189.491 17ZM199.781 17V38H196.481V17H199.781ZM216.092 17V20H212.642V38H209.342V20H205.892V17H216.092ZM217.276 22.04C217.276 20.36 217.706 19.06 218.566 18.14C219.426 17.22 220.666 16.76 222.286 16.76C223.906 16.76 225.146 17.22 226.006 18.14C226.866 19.06 227.296 20.36 227.296 22.04V32.96C227.296 34.64 226.866 35.94 226.006 36.86C225.146 37.78 223.906 38.24 222.286 38.24C220.666 38.24 219.426 37.78 218.566 36.86C217.706 35.94 217.276 34.64 217.276 32.96V22.04ZM220.576 33.17C220.576 34.55 221.146 35.24 222.286 35.24C223.426 35.24 223.996 34.55 223.996 33.17V21.83C223.996 20.45 223.426 19.76 222.286 19.76C221.146 19.76 220.576 20.45 220.576 21.83V33.17ZM232.59 33.2C232.59 34.56 233.16 35.24 234.3 35.24C235.44 35.24 236.01 34.56 236.01 33.2V17H239.13V32.99C239.13 34.69 238.71 36 237.87 36.92C237.03 37.82 235.81 38.27 234.21 38.27C232.61 38.27 231.39 37.82 230.55 36.92C229.71 36 229.29 34.69 229.29 32.99V17H232.59V33.2ZM248.293 38C248.173 37.66 248.093 37.34 248.053 37.04C248.013 36.74 247.993 36.2 247.993 35.42V32.12C247.993 31.16 247.823 30.48 247.483 30.08C247.143 29.66 246.593 29.45 245.833 29.45H244.693V38H241.393V17H246.373C248.073 17 249.313 17.4 250.093 18.2C250.873 18.98 251.263 20.19 251.263 21.83V23.48C251.263 25.64 250.543 27.06 249.103 27.74C249.883 28.06 250.443 28.6 250.783 29.36C251.123 30.1 251.293 31.05 251.293 32.21V35.45C251.293 36.05 251.313 36.54 251.353 36.92C251.393 37.28 251.493 37.64 251.653 38H248.293ZM244.693 26.45H245.983C246.643 26.45 247.133 26.28 247.453 25.94C247.793 25.6 247.963 25.03 247.963 24.23V22.16C247.963 21.4 247.823 20.85 247.543 20.51C247.283 20.17 246.863 20 246.283 20H244.693V26.45ZM253.044 22.04C253.044 20.34 253.454 19.04 254.274 18.14C255.094 17.22 256.304 16.76 257.904 16.76C259.504 16.76 260.714 17.22 261.534 18.14C262.354 19.04 262.764 20.34 262.764 22.04V22.7H259.644V21.83C259.644 21.11 259.504 20.59 259.224 20.27C258.944 19.93 258.534 19.76 257.994 19.76C257.454 19.76 257.044 19.93 256.764 20.27C256.484 20.59 256.344 21.11 256.344 21.83C256.344 22.71 256.574 23.48 257.034 24.14C257.514 24.8 258.224 25.55 259.164 26.39C259.944 27.11 260.574 27.75 261.054 28.31C261.534 28.85 261.944 29.51 262.284 30.29C262.624 31.07 262.794 31.96 262.794 32.96C262.794 34.66 262.374 35.97 261.534 36.89C260.694 37.79 259.474 38.24 257.874 38.24C256.274 38.24 255.054 37.79 254.214 36.89C253.374 35.97 252.954 34.66 252.954 32.96V31.67H256.074V33.17C256.074 34.53 256.644 35.21 257.784 35.21C258.924 35.21 259.494 34.53 259.494 33.17C259.494 32.29 259.254 31.52 258.774 30.86C258.314 30.2 257.614 29.45 256.674 28.61C255.894 27.89 255.264 27.26 254.784 26.72C254.304 26.16 253.894 25.49 253.554 24.71C253.214 23.93 253.044 23.04 253.044 22.04ZM278.913 26.3V32.96C278.913 34.66 278.493 35.97 277.653 36.89C276.813 37.79 275.593 38.24 273.993 38.24C272.393 38.24 271.173 37.79 270.333 36.89C269.493 35.97 269.073 34.66 269.073 32.96V22.04C269.073 20.34 269.493 19.04 270.333 18.14C271.173 17.22 272.393 16.76 273.993 16.76C275.593 16.76 276.813 17.22 277.653 18.14C278.493 19.04 278.913 20.34 278.913 22.04V24.08H275.793V21.83C275.793 20.45 275.223 19.76 274.083 19.76C272.943 19.76 272.373 20.45 272.373 21.83V33.17C272.373 34.53 272.943 35.21 274.083 35.21C275.223 35.21 275.793 34.53 275.793 33.17V29.3H274.293V26.3H278.913ZM288.862 25.85V28.85H284.332V35H290.032V38H281.032V17H290.032V20H284.332V25.85H288.862ZM291.807 22.04C291.807 20.36 292.237 19.06 293.097 18.14C293.957 17.22 295.197 16.76 296.817 16.76C298.437 16.76 299.677 17.22 300.537 18.14C301.397 19.06 301.827 20.36 301.827 22.04V32.96C301.827 34.64 301.397 35.94 300.537 36.86C299.677 37.78 298.437 38.24 296.817 38.24C295.197 38.24 293.957 37.78 293.097 36.86C292.237 35.94 291.807 34.64 291.807 32.96V22.04ZM295.107 33.17C295.107 34.55 295.677 35.24 296.817 35.24C297.957 35.24 298.527 34.55 298.527 33.17V21.83C298.527 20.45 297.957 19.76 296.817 19.76C295.677 19.76 295.107 20.45 295.107 21.83V33.17ZM310.871 38C310.751 37.66 310.671 37.34 310.631 37.04C310.591 36.74 310.571 36.2 310.571 35.42V32.12C310.571 31.16 310.401 30.48 310.061 30.08C309.721 29.66 309.171 29.45 308.411 29.45H307.271V38H303.971V17H308.951C310.651 17 311.891 17.4 312.671 18.2C313.451 18.98 313.841 20.19 313.841 21.83V23.48C313.841 25.64 313.121 27.06 311.681 27.74C312.461 28.06 313.021 28.6 313.361 29.36C313.701 30.1 313.871 31.05 313.871 32.21V35.45C313.871 36.05 313.891 36.54 313.931 36.92C313.971 37.28 314.071 37.64 314.231 38H310.871ZM307.271 26.45H308.561C309.221 26.45 309.711 26.28 310.031 25.94C310.371 25.6 310.541 25.03 310.541 24.23V22.16C310.541 21.4 310.401 20.85 310.121 20.51C309.861 20.17 309.441 20 308.861 20H307.271V26.45ZM325.612 26.3V32.96C325.612 34.66 325.192 35.97 324.352 36.89C323.512 37.79 322.292 38.24 320.692 38.24C319.092 38.24 317.872 37.79 317.032 36.89C316.192 35.97 315.772 34.66 315.772 32.96V22.04C315.772 20.34 316.192 19.04 317.032 18.14C317.872 17.22 319.092 16.76 320.692 16.76C322.292 16.76 323.512 17.22 324.352 18.14C325.192 19.04 325.612 20.34 325.612 22.04V24.08H322.492V21.83C322.492 20.45 321.922 19.76 320.782 19.76C319.642 19.76 319.072 20.45 319.072 21.83V33.17C319.072 34.53 319.642 35.21 320.782 35.21C321.922 35.21 322.492 34.53 322.492 33.17V29.3H320.992V26.3H325.612ZM331.031 17V38H327.731V17H331.031ZM340.794 38L340.224 34.19H336.174L335.604 38H332.574L335.934 17H340.764L344.124 38H340.794ZM339.774 31.34L338.184 20.72L336.594 31.34H339.774Z" fill="#FCC108"/>
<path d="M0 41.5L9.5468 28.5L10.5517 29.5L16.0788 22L20.0985 26.5H21.6059L24.1182 29.5C25.6256 27.6667 29.2434 23.7 31.6552 22.5L35.8054 17.3377C37.0012 15.242 38.06 12.9882 38.6897 11.5L42.2069 12L50.7488 0L56.2759 7L58.2857 8L64.3153 18.5L68.8374 16.5L77.3793 29L80.8966 24.5H82.9064L85.4187 20.5L92.4532 29.5L94.4631 30.5L102 41.5C97.8128 39.5 89.3379 35.5 88.936 35.5C88.534 35.5 87.4286 36.1667 86.9261 36.5V31L85.4187 27.5L86.9261 28L85.4187 23L82.9064 26.5H80.8966L78.8867 29.5L83.2556 35.6942C83.4459 35.9578 83.6356 36.2266 83.824 36.5C84.3728 37.2966 84.9105 38.1331 85.4187 39C86.9261 40 91.1468 43.7 95.9704 50.5C90.2759 48.5 78.3842 43.6 76.3744 40H72.8571L68.8374 37L70.3448 41.5L68.8374 48.5L56.2759 31.5L57.2808 40L50.2463 34L47.734 26.5L50.7488 20.5L50.2463 19.5L65.3202 21V22L70.3448 29L68.335 23V19L64.8177 20.5L50.2463 19L49.7438 16.5L46.2266 19.5L49.7438 12L51.7537 14L50.7488 3L43.2118 14L42.7094 16.5L37.6847 24.5C38.6897 22.3333 40.2975 17.3 38.6897 14.5L32.6601 24.5V28.5L28.6404 36L30.1478 26.5L23.1133 35L21.6059 39L13.064 45L17.0837 39.5L14.5714 35L10.5517 38.5L15.5764 31.5L16.5813 32.5L16.0788 29.5H14.5714L15.5764 25L11.0542 31H9.04433L4.0197 39.5L3.51724 37.5L0 41.5Z" fill="#FCC108"/>
<path d="M37.1823 36.5L26.6305 48.5L36.1773 42L39.1921 46H41.7044L43.7143 48.5L51.2512 54L47.2315 45.5L47.734 42L50.7488 44L45.7241 30L41.202 36L40.6995 39.5L37.1823 36.5Z" fill="#FCC108"/>
<path d="M50.2463 19V19.5L65.3202 21L64.8177 20.5L50.2463 19Z" fill="#FCC415"/>
</svg>
